<svg xmlns="http://www.w3.org/2000/svg" viewBox="0 0 800 600" role="img" aria-labelledby="title desc">
  <title id="title">Star Wars Databank Placeholder</title>
  <desc id="desc">A dark space-themed placeholder image with subtle stars and a yellow title.</desc>
  <defs>
    <radialGradient id="bg" cx="50%" cy="30%" r="70%">
      <stop offset="0%" stop-color="#1b2342"/>
      <stop offset="100%" stop-color="#050816"/>
    </radialGradient>
    <linearGradient id="glow" x1="0%" x2="100%" y1="0%" y2="100%">
      <stop offset="0%" stop-color="#f7d56a" stop-opacity="0.95"/>
      <stop offset="100%" stop-color="#ffffff" stop-opacity="0.15"/>
    </linearGradient>
  </defs>
  <rect width="800" height="600" fill="url(#bg)"/>
  <g fill="#ffffff" opacity="0.75">
    <circle cx="92" cy="88" r="2"/>
    <circle cx="150" cy="188" r="1.5"/>
    <circle cx="248" cy="72" r="1.2"/>
    <circle cx="676" cy="120" r="1.8"/>
    <circle cx="620" cy="250" r="1.4"/>
    <circle cx="720" cy="420" r="1.5"/>
    <circle cx="132" cy="470" r="1.6"/>
    <circle cx="312" cy="520" r="1.2"/>
    <circle cx="470" cy="90" r="1.3"/>
    <circle cx="520" cy="430" r="1.7"/>
  </g>
  <g opacity="0.95">
    <path d="M400 155c31 0 57 25 57 56 0 21-12 39-29 49l29 114H343l30-114c-18-10-30-28-30-49 0-31 26-56 57-56z" fill="url(#glow)"/>
    <rect x="272" y="360" width="256" height="18" rx="9" fill="#f7d56a" opacity="0.9"/>
    <rect x="308" y="395" width="184" height="10" rx="5" fill="#ffffff" opacity="0.45"/>
  </g>
  <text x="50%" y="472" text-anchor="middle" fill="#f7d56a" font-family="Arial, Helvetica, sans-serif" font-size="42" font-weight="700" letter-spacing="4">
    STAR WARS
  </text>
  <text x="50%" y="516" text-anchor="middle" fill="#d9def1" font-family="Arial, Helvetica, sans-serif" font-size="22" letter-spacing="6">
    DATABANK
  </text>
</svg>
